Coordinates
version=1
nRows=8
nColumns=40
inDegrees=yes

Units are S.I. units (second, meters, Newtons, ...)
Angles are in degrees.

endheader
time	pelvis_tilt	pelvis_list	pelvis_rotation	pelvis_tx	pelvis_ty	pelvis_tz	hip_flexion_r	hip_adduction_r	hip_rotation_r	knee_angle_r	knee_angle_r_beta	ankle_angle_r	subtalar_angle_r	mtp_angle_r	hip_flexion_l	hip_adduction_l	hip_rotation_l	knee_angle_l	knee_angle_l_beta	ankle_angle_l	subtalar_angle_l	mtp_angle_l	lumbar_extension	lumbar_bending	lumbar_rotation	arm_flex_r	arm_add_r	arm_rot_r	elbow_flex_r	pro_sup_r	wrist_flex_r	wrist_dev_r	arm_flex_l	arm_add_l	arm_rot_l	elbow_flex_l	pro_sup_l	wrist_flex_l	wrist_dev_l
      2.78000000	    -22.51565447	      7.32166965	     -5.69580844	     -3.41804268	      0.93501697	      0.40310111	     -9.99713930	     -7.92499617	      5.16008868	     11.47421196	     11.47421196	    -30.37430549	      0.00000000	      0.00000000	     80.45474237	     -6.30592203	     -4.77384758	     96.43993546	     96.43993546	      3.30986790	      0.00000000	      0.00000000	    -16.45213993	    -14.18730893	      0.15846884	     67.86380409	    -17.90243627	      5.62188119	    132.39752832	     29.09948823	      0.00000000	      0.00000000	    -70.49922119	    -14.01531404	    -37.08345223	     80.33531795	     87.13112242	      0.00000000	      0.00000000
      2.78500000	    -22.63268286	      7.43574837	     -4.74529865	     -3.38913702	      0.93682946	      0.40266274	    -11.09665733	     -7.85005997	      5.17430484	     11.26234741	     11.26234741	    -33.75507402	      0.00000000	      0.00000000	     80.75308181	     -5.60065152	     -5.19371083	     92.80259373	     92.80259373	      3.56513918	      0.00000000	      0.00000000	    -16.32251717	    -14.46936684	     -0.76176384	     67.00955188	    -18.14962469	      5.40929329	    133.75695733	     29.21727623	      0.00000000	      0.00000000	    -70.92122511	    -13.64583418	    -37.77052955	     81.21816286	     87.09052144	      0.00000000	      0.00000000
      2.79000000	    -22.65377736	      7.48497456	     -3.96395409	     -3.36030471	      0.93906541	      0.40238592	    -12.01946673	     -7.66947289	      5.51796188	     11.52074856	     11.52074856	    -36.54279221	      0.00000000	      0.00000000	     80.67956378	     -5.05396070	     -5.66076423	     89.01723551	     89.01723551	      3.81624452	      0.00000000	      0.00000000	    -16.34382064	    -14.71481267	     -1.55974513	     65.80935952	    -18.47357597	      5.26694573	    134.97330018	     29.27394113	      0.00000000	      0.00000000	    -70.95540829	    -13.23381840	    -38.50197642	     81.98373847	     87.93169341	      0.00000000	      0.00000000
      2.79500000	    -22.56824423	      7.45555798	     -3.35569453	     -3.33155284	      0.94170597	      0.40226838	    -12.76832878	     -7.37430184	      6.18891421	     12.27929130	     12.27929130	    -38.69235335	      0.00000000	      0.00000000	     80.23962003	     -4.66575221	     -6.14486002	     85.10986637	     85.10986637	      4.03361656	      0.00000000	      0.00000000	    -16.52096369	    -14.89860465	     -2.16528413	     64.27588557	    -18.95733731	      5.19750035	    136.03133404	     29.38043605	      0.00000000	      0.00000000	    -70.66480829	    -12.90652233	    -39.03817519	     82.76976296	     87.76598956	      0.00000000	      0.00000000
      2.80000000	    -22.37615210	      7.34569248	     -2.92043437	     -3.30290421	      0.94469915	      0.40230916	    -13.31653980	     -6.96373927	      7.12538387	     13.63067743	     13.63067743	    -39.91660595	      0.00000000	      0.00000000	     79.45331988	     -4.43134502	     -6.62944539	     81.10730791	     81.10730791	      4.18232455	      0.00000000	      0.00000000	    -16.85317117	    -15.01474056	     -2.57817462	     62.44352908	    -19.57817080	      5.20647773	    136.89288030	     29.54040315	      0.00000000	      0.00000000	    -70.02742633	    -12.65909262	    -39.46874326	     83.50813424	     87.82249069	      0.00000000	      0.00000000
      2.80500000	    -22.08301859	      7.16660551	     -2.64542434	     -3.27437692	      0.94797613	      0.40248849	    -13.63924676	     -6.44877367	      8.20128293	     15.65232674	     15.65232674	    -39.97707486	      0.00000000	      0.00000000	     78.34733335	     -4.33144238	     -7.11359856	     77.03643283	     77.03643283	      4.22878415	      0.00000000	      0.00000000	    -17.33057295	    -15.07024364	     -2.80077623	     60.34294630	    -20.30884581	      5.26338741	    137.48232404	     30.28124357	      0.00000000	      0.00000000	    -69.07133871	    -12.51365195	    -39.75234570	     84.22734118	     87.74464347	      0.00000000	      0.00000000
      2.81000000	    -21.63758477	      6.90111416	     -2.46118939	     -3.24585077	      0.95159847	      0.40269136	    -13.90039091	     -5.81031746	      9.26993671	     18.04260191	     18.04260191	    -39.98204204	      0.00000000	      0.00000000	     76.88640360	     -4.29562110	     -7.57311515	     72.93046870	     72.93046870	      4.15548186	      0.00000000	      0.00000000	    -18.01854820	    -15.02651817	     -2.88947923	     57.99114703	    -21.13113549	      5.36124576	    137.83722719	     30.86740607	      0.00000000	      0.00000000	    -67.79638816	    -12.48690265	    -39.87320595	     84.91209422	     87.65416400	      0.00000000	      0.00000000
      2.81500000	    -21.04528037	      6.56702949	     -2.32189652	     -3.21731404	      0.95549673	      0.40284607	    -14.10858492	     -5.07246289	     10.16971680	     20.77838688	     20.77838688	    -39.97930800	      0.00000000	      0.00000000	     75.10008571	     -4.27746906	     -8.01258509	     68.82100219	     68.82100219	      3.94282162	      0.00000000	      0.00000000	    -18.91096664	    -14.89045245	     -2.88179242	     55.41302131	    -22.01092068	      5.45114905	    137.90448303	     31.64174505	      0.00000000	      0.00000000	    -66.23651015	    -12.59101131	    -39.81326954	     85.57443063	     87.54757493	      0.00000000	      0.00000000
